<?xml version="1.0" encoding="utf-8"?>
<!-- Generator: Adobe Illustrator 16.0.0, SVG Export Plug-In . SVG Version: 6.00 Build 0)  -->
<!DOCTYPE svg PUBLIC "-//W3C//DTD SVG 1.1//EN" "http://www.w3.org/Graphics/SVG/1.1/DTD/svg11.dtd">
<svg version="1.1" id="Layer_1" xmlns="http://www.w3.org/2000/svg" xmlns:xlink="http://www.w3.org/1999/xlink" x="0px" y="0px"
	 width="1024px" height="1024px" viewBox="0 0 1024 1024" enable-background="new 0 0 1024 1024" xml:space="preserve">
<path fill="#B5B5B7" d="M512,0C229.25,0,0,229.25,0,512c0,226.25,146.688,418.125,350.156,485.812
	c25.594,4.688,34.938-11.125,34.938-24.625c0-12.188-0.469-52.562-0.719-95.312C242,908.812,211.906,817.5,211.906,817.5
	c-23.312-59.125-56.844-74.875-56.844-74.875c-46.531-31.75,3.53-31.125,3.53-31.125c51.406,3.562,78.47,52.75,78.47,52.75
	c45.688,78.25,119.875,55.625,149,42.5c4.653-33,17.903-55.625,32.5-68.375C304.906,725.438,185.344,681.5,185.344,485.312
	c0-55.938,19.969-101.562,52.656-137.406c-5.219-13-22.844-65.094,5.062-135.562c0,0,42.938-13.75,140.812,52.5
	c40.812-11.406,84.594-17.031,128.125-17.219c43.5,0.188,87.312,5.875,128.188,17.281c97.688-66.312,140.688-52.5,140.688-52.5
	c28,70.531,10.375,122.562,5.125,135.5c32.812,35.844,52.625,81.469,52.625,137.406c0,196.688-119.75,240-233.812,252.688
	c18.438,15.875,34.75,47,34.75,94.75c0,68.438-0.688,123.625-0.688,140.5c0,13.625,9.312,29.562,35.25,24.562
	C877.438,930,1024,738.125,1024,512C1024,229.25,794.75,0,512,0z"/>
</svg>
